<svg width="106" height="29" viewBox="0 0 106 29" fill="none" xmlns="http://www.w3.org/2000/svg">
<path d="M0.410156 23L6.44531 6.08984H8.98828V9.125H8.09766L3.57422 23H0.410156ZM3.46875 18.6289L4.26562 16.2969H12.0117L12.8203 18.6289H3.46875ZM12.7148 23L8.19141 9.125V6.08984H9.84375L15.8789 23H12.7148ZM17.6836 23V5.9375H20.6016V23H17.6836ZM24.1406 23V12.7578H22.3711V10.5078H24.1406V9.30078C24.1406 8.48828 24.2773 7.81641 24.5508 7.28516C24.8242 6.75391 25.2461 6.35938 25.8164 6.10156C26.3945 5.83594 27.1367 5.70312 28.043 5.70312C28.332 5.70312 28.6172 5.71484 28.8984 5.73828C29.1797 5.76172 29.4141 5.79297 29.6016 5.83203V7.87109C29.4844 7.84766 29.3477 7.83203 29.1914 7.82422C29.0352 7.81641 28.8711 7.8125 28.6992 7.8125C28.1133 7.8125 27.6836 7.94922 27.4102 8.22266C27.1367 8.48828 27 8.88281 27 9.40625V10.5078H29.5547V12.7578H27.0586V23H24.1406ZM34.6641 23.2109C33.8359 23.2109 33.1094 23.0547 32.4844 22.7422C31.8594 22.4219 31.3711 21.9805 31.0195 21.418C30.668 20.8477 30.4922 20.1914 30.4922 19.4492V19.4258C30.4922 18.6836 30.6758 18.0469 31.043 17.5156C31.418 16.9766 31.957 16.5547 32.6602 16.25C33.3711 15.9375 34.2266 15.75 35.2266 15.6875L39.9844 15.4062V17.3281L35.6484 17.6094C34.9141 17.6484 34.3516 17.8164 33.9609 18.1133C33.5781 18.4102 33.3867 18.8086 33.3867 19.3086V19.332C33.3867 19.8398 33.582 20.2422 33.9727 20.5391C34.3711 20.8359 34.8906 20.9844 35.5312 20.9844C36.0938 20.9844 36.5977 20.8711 37.043 20.6445C37.4883 20.418 37.8398 20.1094 38.0977 19.7188C38.3555 19.3203 38.4844 18.875 38.4844 18.3828V14.5859C38.4844 13.9609 38.2852 13.4727 37.8867 13.1211C37.4961 12.7617 36.9258 12.582 36.1758 12.582C35.4883 12.582 34.9375 12.7227 34.5234 13.0039C34.1094 13.2773 33.8477 13.6406 33.7383 14.0938L33.7148 14.1875H31.0078L31.0195 14.0586C31.0898 13.3242 31.3398 12.6719 31.7695 12.1016C32.207 11.5312 32.8086 11.082 33.5742 10.7539C34.3398 10.418 35.2422 10.25 36.2812 10.25C37.3359 10.25 38.2422 10.4219 39 10.7656C39.7656 11.1094 40.3555 11.5938 40.7695 12.2188C41.1914 12.8438 41.4023 13.5781 41.4023 14.4219V23H38.4844V21.1133H38.4023C38.168 21.543 37.8594 21.918 37.4766 22.2383C37.1016 22.5508 36.6758 22.793 36.1992 22.9648C35.7227 23.1289 35.2109 23.2109 34.6641 23.2109Z" fill="#FC5B00"/>
<path d="M46.6523 23V6.08984H53.25C54.4062 6.08984 55.4023 6.30078 56.2383 6.72266C57.082 7.14453 57.7344 7.74219 58.1953 8.51562C58.6562 9.28906 58.8867 10.2031 58.8867 11.2578V11.2812C58.8867 12.4297 58.5938 13.4336 58.0078 14.293C57.4219 15.1523 56.6211 15.7578 55.6055 16.1094L59.3906 23H56.3555L52.9102 16.5078C52.8867 16.5078 52.8633 16.5078 52.8398 16.5078C52.8164 16.5078 52.793 16.5078 52.7695 16.5078H49.2891V23H46.6523ZM49.2891 14.3516H52.9922C54 14.3516 54.7812 14.0898 55.3359 13.5664C55.8906 13.0352 56.168 12.2891 56.168 11.3281V11.3047C56.168 10.3672 55.875 9.63281 55.2891 9.10156C54.7109 8.5625 53.918 8.29297 52.9102 8.29297H49.2891V14.3516ZM66.5273 23.2461C65.3086 23.2461 64.2617 22.9844 63.3867 22.4609C62.5117 21.9375 61.8398 21.1953 61.3711 20.2344C60.9023 19.2734 60.668 18.1406 60.668 16.8359V16.8242C60.668 15.5352 60.9023 14.4062 61.3711 13.4375C61.8477 12.4609 62.5117 11.7031 63.3633 11.1641C64.2227 10.625 65.2305 10.3555 66.3867 10.3555C67.543 10.3555 68.5391 10.6172 69.375 11.1406C70.2188 11.6562 70.8672 12.3828 71.3203 13.3203C71.7734 14.25 72 15.3398 72 16.5898V17.457H61.9453V15.6523H70.7695L69.5156 17.3281V16.3438C69.5156 15.4609 69.3828 14.7344 69.1172 14.1641C68.8516 13.5859 68.4844 13.1562 68.0156 12.875C67.5547 12.5859 67.0156 12.4414 66.3984 12.4414C65.7891 12.4414 65.2422 12.5898 64.7578 12.8867C64.2812 13.1836 63.9062 13.625 63.6328 14.2109C63.3594 14.7891 63.2227 15.5 63.2227 16.3438V17.3281C63.2227 18.1328 63.3594 18.8203 63.6328 19.3906C63.9062 19.9609 64.293 20.3984 64.793 20.7031C65.293 21.0078 65.8867 21.1602 66.5742 21.1602C67.082 21.1602 67.5273 21.0859 67.9102 20.9375C68.3008 20.7812 68.6211 20.5781 68.8711 20.3281C69.1289 20.0781 69.3086 19.8047 69.4102 19.5078L69.4336 19.4141H71.8711L71.8359 19.543C71.7344 20.0117 71.543 20.4688 71.2617 20.9141C70.9883 21.3516 70.625 21.75 70.1719 22.1094C69.7188 22.4609 69.1875 22.7383 68.5781 22.9414C67.9688 23.1445 67.2852 23.2461 66.5273 23.2461ZM78.7852 23.2461C77.7539 23.2461 76.8672 23.0898 76.125 22.7773C75.3828 22.4648 74.7969 22.0273 74.3672 21.4648C73.9453 20.9023 73.6914 20.25 73.6055 19.5078L73.5938 19.4258H76.125L76.1367 19.5195C76.2617 20.0664 76.543 20.4961 76.9805 20.8086C77.418 21.1211 78.0234 21.2773 78.7969 21.2773C79.3125 21.2773 79.75 21.2109 80.1094 21.0781C80.4766 20.9453 80.7617 20.7578 80.9648 20.5156C81.168 20.2656 81.2695 19.9727 81.2695 19.6367V19.625C81.2695 19.2266 81.1328 18.9023 80.8594 18.6523C80.5938 18.4023 80.1211 18.1953 79.4414 18.0312L77.4258 17.5742C76.6445 17.3867 75.9922 17.1406 75.4688 16.8359C74.9531 16.5234 74.5664 16.1406 74.3086 15.6875C74.0508 15.2344 73.9219 14.707 73.9219 14.1055V14.0938C73.9219 13.3516 74.1211 12.7031 74.5195 12.1484C74.9258 11.5859 75.4883 11.1484 76.207 10.8359C76.9336 10.5156 77.7734 10.3555 78.7266 10.3555C79.6953 10.3555 80.5312 10.5195 81.2344 10.8477C81.9453 11.1758 82.5 11.6172 82.8984 12.1719C83.2969 12.7266 83.5156 13.3555 83.5547 14.0586L83.5664 14.1758H81.1758L81.1641 14.0938C81.0859 13.5703 80.8359 13.1445 80.4141 12.8164C80 12.4883 79.4336 12.3242 78.7148 12.3242C78.2617 12.3242 77.8633 12.3945 77.5195 12.5352C77.1836 12.668 76.9219 12.8555 76.7344 13.0977C76.5547 13.3398 76.4648 13.6289 76.4648 13.9648V13.9766C76.4648 14.2266 76.5273 14.4531 76.6523 14.6562C76.7773 14.8594 76.9766 15.0352 77.25 15.1836C77.5234 15.332 77.8828 15.4609 78.3281 15.5703L80.3438 16.0273C81.5938 16.3164 82.4883 16.7305 83.0273 17.2695C83.5742 17.8008 83.8477 18.5117 83.8477 19.4023V19.4141C83.8477 20.1719 83.6289 20.8398 83.1914 21.418C82.7539 21.9883 82.1523 22.4375 81.3867 22.7656C80.6289 23.0859 79.7617 23.2461 78.7852 23.2461ZM90.4102 23.2109C89.1602 23.2109 88.2344 22.9375 87.6328 22.3906C87.0312 21.8438 86.7305 20.957 86.7305 19.7305V12.6172H84.9258V10.6016H86.7305V7.39062H89.332V10.6016H91.7227V12.6172H89.332V19.4961C89.332 20.1367 89.4688 20.5781 89.7422 20.8203C90.0156 21.0625 90.4297 21.1836 90.9844 21.1836C91.1328 21.1836 91.2656 21.1797 91.3828 21.1719C91.5 21.1562 91.6133 21.1445 91.7227 21.1367V23.1055C91.5586 23.1289 91.3633 23.1523 91.1367 23.1758C90.9102 23.1992 90.668 23.2109 90.4102 23.2109ZM99.0234 23.2461C97.8359 23.2461 96.8008 22.9883 95.918 22.4727C95.0352 21.9492 94.3477 21.207 93.8555 20.2461C93.3711 19.2773 93.1289 18.1289 93.1289 16.8008V16.7773C93.1289 15.457 93.3711 14.3164 93.8555 13.3555C94.3477 12.3945 95.0352 11.6562 95.918 11.1406C96.8008 10.6172 97.832 10.3555 99.0117 10.3555C100.199 10.3555 101.234 10.6172 102.117 11.1406C103 11.6562 103.684 12.3945 104.168 13.3555C104.66 14.3086 104.906 15.4492 104.906 16.7773V16.8008C104.906 18.1367 104.66 19.2852 104.168 20.2461C103.684 21.207 103 21.9492 102.117 22.4727C101.242 22.9883 100.211 23.2461 99.0234 23.2461ZM99.0352 21.1133C99.707 21.1133 100.285 20.9453 100.77 20.6094C101.262 20.2656 101.641 19.7734 101.906 19.1328C102.172 18.4922 102.305 17.7148 102.305 16.8008V16.7773C102.305 15.8711 102.168 15.0977 101.895 14.457C101.629 13.8164 101.25 13.3281 100.758 12.9922C100.266 12.6562 99.6836 12.4883 99.0117 12.4883C98.3555 12.4883 97.7773 12.6602 97.2773 13.0039C96.7852 13.3398 96.4023 13.8281 96.1289 14.4688C95.8633 15.1016 95.7305 15.8711 95.7305 16.7773V16.8008C95.7305 17.7148 95.8633 18.4922 96.1289 19.1328C96.4023 19.7734 96.7852 20.2656 97.2773 20.6094C97.7695 20.9453 98.3555 21.1133 99.0352 21.1133Z" fill="#1E2022"/>
</svg>
