<svg width="113" height="103" viewBox="0 0 113 103" fill="none" xmlns="http://www.w3.org/2000/svg">
<rect x="0.5" y="0.5" width="112" height="102" rx="10.5" fill="#FDFDFD" stroke="#E8EAED" stroke-linecap="round" stroke-dasharray="4 4"/>
<circle opacity="0.1" cx="56.7405" cy="44.7405" r="20.7405" fill="#523BB1"/>
<path d="M60.7407 48.7407L56.7407 44.7407L52.7407 48.7407" stroke="#523BB1" stroke-width="1.2" stroke-linecap="round" stroke-linejoin="round"/>
<path d="M56.7407 44.7407V53.7407" stroke="#523BB1" stroke-width="1.2" stroke-linecap="round" stroke-linejoin="round"/>
<path d="M65.1307 51.1307C66.106 50.599 66.8765 49.7576 67.3206 48.7393C67.7646 47.7211 67.8569 46.5839 67.5829 45.5074C67.3089 44.4309 66.6842 43.4762 65.8074 42.7942C64.9305 42.1121 63.8515 41.7414 62.7407 41.7407H61.4807C61.178 40.5699 60.6138 39.483 59.8306 38.5617C59.0474 37.6404 58.0655 36.9086 56.9588 36.4213C55.852 35.9341 54.6492 35.7041 53.4408 35.7486C52.2324 35.7931 51.0497 36.111 49.9819 36.6784C48.914 37.2457 47.9886 38.0478 47.2753 39.0243C46.562 40.0008 46.0794 41.1262 45.8637 42.3161C45.648 43.506 45.7048 44.7292 46.0299 45.894C46.355 47.0587 46.9399 48.1346 47.7407 49.0407" stroke="#523BB1" stroke-width="1.2" stroke-linecap="round" stroke-linejoin="round"/>
<path d="M60.7407 48.7407L56.7407 44.7407L52.7407 48.7407" stroke="#523BB1" stroke-width="1.2" stroke-linecap="round" stroke-linejoin="round"/>
<path d="M47.6719 71.5576L51.6455 80.0635H50.2744L49.3857 78.0322H45.3994L44.498 80.0635H43.127L47.1006 71.5576H47.6719ZM47.4053 73.4873L45.8691 76.9531H48.916L47.4053 73.4873ZM58.5898 70.9229V80.0635H57.5488V78.9844C57.3288 79.3229 57.0283 79.6191 56.6475 79.873C56.2751 80.127 55.8477 80.2539 55.3652 80.2539C54.8236 80.2539 54.3285 80.1185 53.8799 79.8477C53.4313 79.5684 53.0716 79.1833 52.8008 78.6924C52.5384 78.2015 52.4072 77.6344 52.4072 76.9912C52.4072 76.2887 52.5384 75.6836 52.8008 75.1758C53.0716 74.668 53.4398 74.2786 53.9053 74.0078C54.3708 73.7285 54.8913 73.5889 55.4668 73.5889C55.8307 73.5889 56.1989 73.6777 56.5713 73.8555C56.9521 74.0247 57.278 74.2617 57.5488 74.5664V70.9229H58.5898ZM55.6572 74.6299C55.2002 74.6299 54.8109 74.7441 54.4893 74.9727C54.1676 75.1927 53.918 75.4805 53.7402 75.8359C53.571 76.1914 53.4863 76.5765 53.4863 76.9912C53.4863 77.3975 53.571 77.7741 53.7402 78.1211C53.9095 78.4596 54.1465 78.7305 54.4512 78.9336C54.7643 79.1367 55.124 79.2383 55.5303 79.2383C55.9196 79.2383 56.2666 79.1367 56.5713 78.9336C56.876 78.7305 57.1172 78.4512 57.2949 78.0957C57.4727 77.7318 57.5573 77.3255 57.5488 76.877L57.5361 75.6582C57.2738 75.3281 56.9902 75.0742 56.6855 74.8965C56.3893 74.7188 56.0465 74.6299 55.6572 74.6299ZM66.4863 70.9229V80.0635H65.4453V78.9844C65.2253 79.3229 64.9248 79.6191 64.5439 79.873C64.1715 80.127 63.7441 80.2539 63.2617 80.2539C62.7201 80.2539 62.2249 80.1185 61.7764 79.8477C61.3278 79.5684 60.9681 79.1833 60.6973 78.6924C60.4349 78.2015 60.3037 77.6344 60.3037 76.9912C60.3037 76.2887 60.4349 75.6836 60.6973 75.1758C60.9681 74.668 61.3363 74.2786 61.8018 74.0078C62.2673 73.7285 62.7878 73.5889 63.3633 73.5889C63.7272 73.5889 64.0954 73.6777 64.4678 73.8555C64.8486 74.0247 65.1745 74.2617 65.4453 74.5664V70.9229H66.4863ZM63.5537 74.6299C63.0967 74.6299 62.7074 74.7441 62.3857 74.9727C62.0641 75.1927 61.8145 75.4805 61.6367 75.8359C61.4674 76.1914 61.3828 76.5765 61.3828 76.9912C61.3828 77.3975 61.4674 77.7741 61.6367 78.1211C61.806 78.4596 62.043 78.7305 62.3477 78.9336C62.6608 79.1367 63.0205 79.2383 63.4268 79.2383C63.8161 79.2383 64.1631 79.1367 64.4678 78.9336C64.7725 78.7305 65.0137 78.4512 65.1914 78.0957C65.3691 77.7318 65.4538 77.3255 65.4453 76.877L65.4326 75.6582C65.1702 75.3281 64.8867 75.0742 64.582 74.8965C64.2858 74.7188 63.943 74.6299 63.5537 74.6299Z" fill="#9C9BA6"/>
</svg>
