<svg width="210" height="198" viewBox="0 0 210 198" fill="none" xmlns="http://www.w3.org/2000/svg">
<g clip-path="url(#clip0_30_512)">
<path d="M210 196.956H68.2886V197.566H210V196.956Z" fill="#3F3D56"/>
<path d="M183.553 93.2847C183.826 93.6044 184.029 93.9777 184.147 94.3804C184.266 94.7831 184.299 95.2062 184.244 95.6224C184.188 96.0386 184.046 96.4385 183.826 96.7963C183.606 97.154 183.313 97.4617 182.966 97.6993L168.3 107.743L161.842 112.037C161.475 112.281 161.03 112.38 160.594 112.315C160.158 112.25 159.762 112.026 159.483 111.685C159.32 111.487 159.202 111.256 159.138 111.007C159.074 110.759 159.064 110.5 159.11 110.248C159.156 109.995 159.256 109.756 159.404 109.546C159.551 109.336 159.743 109.161 159.965 109.032L166.22 105.41L177.137 95.0394L170.119 87.5209L175.317 83.6321L183.553 93.2847Z" fill="#A0616A"/>
<path d="M149.066 187.853H145.478L143.347 158.298L152.445 158.039L149.066 187.853Z" fill="#A0616A"/>
<path d="M149.326 197.446C148.369 197.881 147.568 194.353 146.761 195.144C144.504 197.356 141.048 197.838 138.035 196.872L139.09 196.86C138.908 196.802 138.74 196.708 138.596 196.583C138.452 196.458 138.334 196.305 138.251 196.133C138.168 195.962 138.121 195.775 138.112 195.585C138.103 195.395 138.133 195.205 138.2 195.026C138.281 194.813 138.412 194.622 138.582 194.471C138.753 194.319 138.957 194.211 139.179 194.155L141.579 193.557L145.348 186.946L149.196 186.687C150.053 187.777 150.652 189.048 150.946 190.402C151.241 191.757 151.224 193.161 150.896 194.508C150.547 195.929 150.008 197.135 149.326 197.446Z" fill="#2F2E41"/>
<path d="M172.952 187.853H169.365L167.234 158.298L176.591 156.483L172.952 187.853Z" fill="#A0616A"/>
<path d="M173.212 197.446C172.256 197.881 171.454 194.353 170.648 195.144C168.391 197.356 164.935 197.838 161.922 196.872L162.976 196.86C162.794 196.802 162.626 196.708 162.482 196.583C162.338 196.458 162.221 196.305 162.138 196.133C162.055 195.962 162.007 195.775 161.999 195.585C161.99 195.395 162.02 195.205 162.087 195.026C162.167 194.813 162.298 194.622 162.469 194.471C162.639 194.319 162.844 194.211 163.066 194.155L165.466 193.557L169.235 186.946L173.342 186.427L173.446 186.596C174.24 187.873 174.752 189.304 174.948 190.793C175.143 192.283 175.018 193.797 174.581 195.234C174.239 196.326 173.774 197.19 173.212 197.446Z" fill="#2F2E41"/>
<path d="M177.02 84.3007C173.721 84.7585 171.437 86.5607 170.507 90.1557L164.443 78.9876C164.083 78.2779 163.992 77.4626 164.186 76.6913C164.38 75.92 164.846 75.2442 165.499 74.7879C166.192 74.3036 167.044 74.1018 167.882 74.2241C168.719 74.3463 169.478 74.7833 170.002 75.4454L177.02 84.3007Z" fill="#FC4100"/>
<path d="M183.375 155.187C168.63 161.694 153.541 162.495 138.149 158.298C143.77 136.554 150.406 116.894 150.365 100.743L165.44 99.4468L167.762 103.117C173.269 111.826 177.07 121.497 178.964 131.618L183.375 155.187Z" fill="#2F2E41"/>
<path d="M158.683 67.2988C162.989 67.2988 166.48 63.8166 166.48 59.5211C166.48 55.2256 162.989 51.7434 158.683 51.7434C154.376 51.7434 150.885 55.2256 150.885 59.5211C150.885 63.8166 154.376 67.2988 158.683 67.2988Z" fill="#A0616A"/>
<path d="M167.26 73.2618L157.643 73.7803L156.083 65.2248L163.881 63.9287L167.26 73.2618Z" fill="#A0616A"/>
<path d="M166.22 100.743L155.684 101.039L150.365 101.78C147.754 93.1771 145.556 84.5939 150.885 77.4099L157.123 71.1877L166.48 70.9285L166.604 70.9991C168.09 71.8483 169.242 73.1771 169.869 74.7665C170.497 76.3559 170.563 78.1112 170.056 79.743C167.734 87.2695 166.243 94.3768 166.22 100.743Z" fill="#FC4100"/>
<path d="M150.105 124.854L149.452 133.763C149.417 134.24 149.21 134.688 148.87 135.026C148.53 135.363 148.079 135.566 147.6 135.598C147.324 135.616 147.048 135.577 146.788 135.483C146.528 135.389 146.291 135.242 146.091 135.051C145.892 134.86 145.734 134.63 145.629 134.375C145.523 134.12 145.472 133.846 145.479 133.571L145.687 124.854L152.185 100.224L152.445 85.1875L159.722 84.9282L159.202 102.298L150.105 124.854Z" fill="#A0616A"/>
<path d="M160.502 86.2245C157.416 84.973 154.535 85.3922 151.925 88.0393L152.282 75.3434C152.327 74.5494 152.658 73.7983 153.213 73.2275C153.768 72.6568 154.511 72.3047 155.305 72.2358C156.148 72.1627 156.987 72.4139 157.651 72.9379C158.314 73.4619 158.751 74.219 158.873 75.0543L160.502 86.2245Z" fill="#FC4100"/>
<path d="M175.187 94.132H151.275C156.853 79.398 158.652 65.6911 151.275 53.9472C151.402 50.4199 155.937 47.3621 159.46 47.6999C163.62 48.0989 169.21 51.1481 169.989 55.2435L175.187 94.132Z" fill="#2F2E41"/>
<path d="M98.9797 47.0522H97.889V17.2492C97.889 14.984 97.4417 12.741 96.5726 10.6482C95.7036 8.55543 94.4298 6.65389 92.824 5.05215C91.2181 3.45042 89.3117 2.17985 87.2136 1.313C85.1155 0.446151 82.8668 -6.78818e-06 80.5958 0H17.2932C15.0223 -5.00179e-06 12.7735 0.446156 10.6754 1.31301C8.57732 2.17986 6.67093 3.45042 5.06511 5.05216C3.45929 6.65389 2.18548 8.55544 1.31642 10.6482C0.447358 12.741 5.85279e-05 14.984 6.10352e-05 17.2492V180.751C5.92442e-05 183.016 0.447358 185.259 1.31642 187.352C2.18548 189.445 3.45929 191.346 5.06511 192.948C6.67093 194.55 8.57732 195.82 10.6754 196.687C12.7735 197.554 15.0223 198 17.2932 198H80.5958C82.8668 198 85.1155 197.554 87.2136 196.687C89.3117 195.82 91.2181 194.55 92.824 192.948C94.4298 191.346 95.7036 189.445 96.5726 187.352C97.4417 185.259 97.889 183.016 97.889 180.751V68.2665H98.9797V47.0522Z" fill="#3F3D56"/>
<path d="M81.2935 4.48755H73.0304C73.4104 5.41681 73.5555 6.42503 73.4528 7.42338C73.3502 8.42173 73.0029 9.37958 72.4417 10.2125C71.8805 11.0455 71.1225 11.728 70.2346 12.2C69.3466 12.6719 68.3559 12.9188 67.3498 12.9189H31.0845C30.0783 12.9188 29.0877 12.6719 28.1997 12.2C27.3117 11.728 26.5538 11.0455 25.9925 10.2126C25.4313 9.37959 25.0841 8.42174 24.9814 7.42338C24.8788 6.42503 25.0238 5.41681 25.4038 4.48755H17.6861C15.9901 4.48755 14.3108 4.82073 12.744 5.46809C11.1771 6.11544 9.75346 7.06428 8.55426 8.26044C7.35505 9.45659 6.40379 10.8766 5.75478 12.4395C5.10577 14.0023 4.77173 15.6774 4.77173 17.369V180.631C4.77173 182.322 5.10577 183.997 5.75477 185.56C6.40378 187.123 7.35504 188.543 8.55425 189.739C9.75346 190.936 11.1771 191.884 12.744 192.532C14.3108 193.179 15.9901 193.512 17.6861 193.512H81.2935C82.9895 193.512 84.6688 193.179 86.2356 192.532C87.8025 191.884 89.2262 190.936 90.4254 189.739C91.6246 188.543 92.5758 187.123 93.2248 185.56C93.8738 183.997 94.2079 182.322 94.2079 180.631V17.369C94.2079 13.9526 92.8472 10.6762 90.4253 8.26043C88.0034 5.84469 84.7186 4.48754 81.2935 4.48755Z" fill="white"/>
<path d="M83.0386 29.9902H15.941V87.3951H83.0386V29.9902Z" fill="#E6E6E6"/>
<path d="M35.8521 99.3657C38.5636 99.3657 40.7617 97.1732 40.7617 94.4686C40.7617 91.764 38.5636 89.5715 35.8521 89.5715C33.1406 89.5715 30.9425 91.764 30.9425 94.4686C30.9425 97.1732 33.1406 99.3657 35.8521 99.3657Z" fill="#FC4100"/>
<path d="M38.307 94.0607H36.2613V92.0203H35.4431V94.0607H33.3974V94.8769H35.4431V96.9174H36.2613V94.8769H38.307V94.0607Z" fill="white"/>
<path d="M61.7638 99.3657C64.4752 99.3657 66.6733 97.1732 66.6733 94.4686C66.6733 91.764 64.4752 89.5715 61.7638 89.5715C59.0523 89.5715 56.8542 91.764 56.8542 94.4686C56.8542 97.1732 59.0523 99.3657 61.7638 99.3657Z" fill="#FC4100"/>
<path d="M64.2186 94.8767V94.0605H59.309V94.8767H64.2186Z" fill="white"/>
<path d="M51.9923 37.1494H46.6899C46.5034 37.1494 46.3246 37.2233 46.1928 37.3548C46.0609 37.4863 45.9869 37.6646 45.9869 37.8506V40.1721C45.9869 40.3581 46.0609 40.5364 46.1928 40.6679C46.3246 40.7994 46.5034 40.8733 46.6899 40.8733H47.5685V44.3516H51.1136V40.8733H51.9923C52.1787 40.8733 52.3575 40.7994 52.4894 40.6679C52.6212 40.5364 52.6953 40.3581 52.6953 40.1721V37.8506C52.6953 37.6646 52.6212 37.4863 52.4894 37.3548C52.3575 37.2233 52.1787 37.1494 51.9923 37.1494Z" fill="#FC4100"/>
<path d="M57.3032 58.3957C54.0559 53.656 52.3957 48.0127 52.5607 42.2743C52.5637 42.1419 52.5206 42.0126 52.4388 41.9083C52.357 41.804 52.2415 41.7311 52.1119 41.7021V40.699H46.5119V41.6881H46.4347C46.3593 41.6882 46.2846 41.7032 46.2149 41.732C46.1452 41.7609 46.0819 41.8032 46.0286 41.8565C45.9753 41.9098 45.9331 41.9731 45.9043 42.0426C45.8755 42.1122 45.8608 42.1868 45.8609 42.262C45.8609 42.276 45.8614 42.2899 45.8624 42.3037C46.3036 48.438 44.8139 53.9391 41.3932 58.8071C41.1963 59.0868 41.0958 59.4227 41.1066 59.7643L41.7189 78.6575C41.7336 79.0789 41.9109 79.4784 42.2138 79.7725C42.5168 80.0666 42.9218 80.2327 43.3446 80.236H56.011C56.4386 80.2326 56.8479 80.0627 57.1517 79.7626C57.4555 79.4626 57.6299 79.0561 57.6377 78.6297L57.8736 60.2859C57.8806 59.6126 57.6816 58.9532 57.3032 58.3957Z" fill="#3F3D56"/>
<path opacity="0.2" d="M50.8869 37.906C50.8869 38.3072 50.7271 38.692 50.4427 38.9757C50.1583 39.2594 49.7725 39.4188 49.3703 39.4188C48.968 39.4188 48.5822 39.2594 48.2978 38.9757C48.0134 38.692 47.8536 38.3072 47.8536 37.906" fill="black"/>
<path d="M55.2981 64.6712H53.7643C53.6178 63.7234 53.1362 62.8592 52.4064 62.2349C51.6766 61.6105 50.747 61.2673 49.7856 61.2673C48.8241 61.2673 47.8944 61.6105 47.1647 62.2349C46.4349 62.8592 45.9533 63.7234 45.8068 64.6712H44.2729C44.1097 64.6712 43.9484 64.7064 43.8002 64.7744C43.6519 64.8424 43.5201 64.9415 43.4138 65.0651C43.3076 65.1886 43.2293 65.3336 43.1845 65.4902C43.1397 65.6467 43.1293 65.811 43.1542 65.9719L44.8202 76.7738H54.3869L56.4106 66.0083C56.4413 65.8453 56.4355 65.6775 56.3938 65.5169C56.352 65.3563 56.2753 65.2069 56.1691 65.0792C56.0629 64.9515 55.9298 64.8488 55.7792 64.7783C55.6287 64.7078 55.4644 64.6712 55.2981 64.6712Z" fill="#FC4100"/>
<path d="M83.0386 110.792H15.941V168.197H83.0386V110.792Z" fill="#E6E6E6"/>
<path d="M35.8521 180.168C38.5636 180.168 40.7617 177.975 40.7617 175.271C40.7617 172.566 38.5636 170.374 35.8521 170.374C33.1406 170.374 30.9425 172.566 30.9425 175.271C30.9425 177.975 33.1406 180.168 35.8521 180.168Z" fill="#FC4100"/>
<path d="M38.307 174.863H36.2613V172.822H35.4431V174.863H33.3974V175.679H35.4431V177.719H36.2613V175.679H38.307V174.863Z" fill="white"/>
<path d="M61.7638 180.168C64.4752 180.168 66.6733 177.975 66.6733 175.271C66.6733 172.566 64.4752 170.374 61.7638 170.374C59.0523 170.374 56.8542 172.566 56.8542 175.271C56.8542 177.975 59.0523 180.168 61.7638 180.168Z" fill="#FC4100"/>
<path d="M64.2186 175.679V174.863H59.309V175.679H64.2186Z" fill="white"/>
<path d="M62.6988 151.574L62.7358 151.574C63.9991 151.584 65.2363 151.215 66.2859 150.514C67.3356 149.812 68.1489 148.812 68.6199 147.642C70.1041 143.899 70.4516 139.803 69.6192 135.864C68.7867 131.925 66.8111 128.318 63.9382 125.491C61.0654 122.664 57.4223 120.742 53.4625 119.965C49.5027 119.188 45.4013 119.589 41.6688 121.12C37.9364 122.651 34.7378 125.243 32.4714 128.574C30.205 131.905 28.971 135.827 28.9228 139.852C28.8747 143.877 30.0147 147.827 32.2009 151.211C34.387 154.595 37.5227 157.262 41.2175 158.881C42.3658 159.388 43.6411 159.538 44.8759 159.309C46.1107 159.081 47.2475 158.486 48.1373 157.601C50.0456 155.688 52.3147 154.17 54.8139 153.136C57.3131 152.101 59.9929 151.57 62.6988 151.574Z" fill="white"/>
<path d="M52.1315 145.362C55.8833 145.362 58.9248 142.329 58.9248 138.586C58.9248 134.844 55.8833 131.811 52.1315 131.811C48.3797 131.811 45.3383 134.844 45.3383 138.586C45.3383 142.329 48.3797 145.362 52.1315 145.362Z" fill="#F9A825"/>
</g>
<defs>
<clipPath id="clip0_30_512">
<rect width="210" height="198" fill="white"/>
</clipPath>
</defs>
</svg>
