<svg width="208" height="266" viewBox="0 0 208 266" fill="none" xmlns="http://www.w3.org/2000/svg">
<g clip-path="url(#clip0_112_2513)">
<path d="M80.4614 217C124.899 217 160.923 210.655 160.923 202.828C160.923 195.001 124.899 188.656 80.4614 188.656C36.0238 188.656 0 195.001 0 202.828C0 210.655 36.0238 217 80.4614 217Z" fill="#3F3D56"/>
<path d="M129.364 156.802C172.794 156.802 208 121.7 208 78.4008C208 35.1013 172.794 0 129.364 0C85.9349 0 50.7285 35.1013 50.7285 78.4008C50.7285 121.7 85.9349 156.802 129.364 156.802Z" fill="#3F3D56"/>
<path opacity="0.05" d="M129.364 143.123C165.217 143.123 194.281 114.146 194.281 78.4009C194.281 42.6557 165.217 13.6785 129.364 13.6785C93.512 13.6785 64.4479 42.6557 64.4479 78.4009C64.4479 114.146 93.512 143.123 129.364 143.123Z" fill="black"/>
<path opacity="0.05" d="M129.364 131.447C158.748 131.447 182.569 107.697 182.569 78.4008C182.569 49.1045 158.748 25.3552 129.364 25.3552C99.9802 25.3552 76.1597 49.1045 76.1597 78.4008C76.1597 107.697 99.9802 131.447 129.364 131.447Z" fill="black"/>
<path opacity="0.05" d="M129.364 116.434C150.432 116.434 167.511 99.4058 167.511 78.4008C167.511 57.3959 150.432 40.3681 129.364 40.3681C108.296 40.3681 91.2176 57.3959 91.2176 78.4008C91.2176 99.4058 108.296 116.434 129.364 116.434Z" fill="black"/>
<path d="M51.425 85.4172C51.425 85.4172 45.2426 102.767 47.9903 108.931C50.738 115.095 55.0886 121.031 55.0886 121.031C55.0886 121.031 53.4858 86.5586 51.425 85.4172Z" fill="#D0CDE1"/>
<path opacity="0.1" d="M51.425 85.4172C51.425 85.4172 45.2426 102.767 47.9903 108.931C50.738 115.095 55.0886 121.031 55.0886 121.031C55.0886 121.031 53.4858 86.5586 51.425 85.4172Z" fill="black"/>
<path d="M55.7755 125.597C55.7755 125.597 55.3176 129.934 55.0886 130.162C54.8596 130.391 55.3176 130.847 55.0886 131.532C54.8596 132.217 54.6307 133.13 55.0886 133.358C55.5466 133.587 52.5699 153.676 52.5699 153.676C52.5699 153.676 45.2427 163.265 48.2193 178.332L49.1352 193.627C49.1352 193.627 56.2335 194.084 56.2335 191.573C56.2335 191.573 55.7755 188.605 55.7755 187.235C55.7755 185.866 56.9204 185.866 56.2335 185.181C55.5466 184.496 55.5466 184.039 55.5466 184.039C55.5466 184.039 56.6914 183.126 56.4625 182.898C56.2335 182.669 58.5233 166.461 58.5233 166.461C58.5233 166.461 61.042 163.95 61.042 162.58V161.21C61.042 161.21 62.1869 158.242 62.1869 158.014C62.1869 157.786 68.3692 143.86 68.3692 143.86L70.8879 153.905L73.6357 168.287C73.6357 168.287 75.0095 181.3 77.7572 186.322C77.7572 186.322 82.5657 202.759 82.5657 202.303C82.5657 201.846 90.5798 200.704 90.3509 198.65C90.1219 196.595 85.5424 167.83 85.5424 167.83L86.6873 125.14L55.7755 125.597Z" fill="#2F2E41"/>
<path d="M49.5932 192.486C49.5932 192.486 43.4108 204.586 47.5324 205.042C51.654 205.499 53.2568 205.499 55.0886 203.672C56.09 202.674 58.118 201.334 59.7508 200.325C60.7183 199.736 61.4999 198.888 62.0059 197.877C62.5119 196.866 62.7218 195.733 62.6117 194.609C62.4909 193.492 62.0723 192.572 61.042 192.486C58.2943 192.258 55.0886 189.747 55.0886 189.747L49.5932 192.486Z" fill="#2F2E41"/>
<path d="M83.7105 201.389C83.7105 201.389 77.5282 213.489 81.6498 213.945C85.7713 214.402 87.3742 214.402 89.206 212.576C90.2074 211.577 92.2354 210.238 93.8682 209.228C94.8357 208.64 95.6172 207.792 96.1232 206.781C96.6292 205.77 96.8392 204.637 96.7291 203.512C96.6083 202.395 96.1897 201.475 95.1593 201.389C92.4116 201.161 89.206 198.65 89.206 198.65L83.7105 201.389Z" fill="#2F2E41"/>
<path d="M77.1764 65.6167C82.4923 65.6167 86.8017 61.3202 86.8017 56.0202C86.8017 50.7202 82.4923 46.4236 77.1764 46.4236C71.8605 46.4236 67.5511 50.7202 67.5511 56.0202C67.5511 61.3202 71.8605 65.6167 77.1764 65.6167Z" fill="#FFB8B8"/>
<path d="M70.9888 59.1733C70.9888 59.1733 64.1136 71.7859 63.5636 71.7859C63.0136 71.7859 75.9389 75.8987 75.9389 75.8987C75.9389 75.8987 79.514 63.8345 80.0641 62.7378L70.9888 59.1733Z" fill="#FFB8B8"/>
<path d="M81.5353 72.9753C81.5353 72.9753 67.7967 65.4417 66.4229 65.6699C65.049 65.8982 50.3946 78.6826 50.6236 83.9333C50.8525 89.184 52.6843 97.8591 52.6843 97.8591C52.6843 97.8591 53.3713 122.058 54.7451 122.286C56.119 122.515 54.5161 126.624 54.9741 126.624C55.4321 126.624 87.0307 126.624 87.2597 125.939C87.4887 125.254 81.5353 72.9753 81.5353 72.9753Z" fill="#D0CDE1"/>
<path d="M89.206 127.195C89.206 127.195 93.5565 140.436 89.8929 139.979C86.2293 139.522 84.6265 128.564 84.6265 128.564L89.206 127.195Z" fill="#FFB8B8"/>
<path d="M77.5282 72.1763C77.5282 72.1763 69.0561 74.0026 70.43 85.4172C71.8038 96.8318 74.3226 108.246 74.3226 108.246L82.7947 126.738L83.7106 130.162L89.8929 128.564L85.3134 102.083C85.3134 102.083 83.7106 73.7743 81.6498 72.8612C80.3503 72.3088 78.9372 72.074 77.5282 72.1763Z" fill="#D0CDE1"/>
<path opacity="0.1" d="M72.3762 107.904L82.9092 126.624L74.0349 106.898L72.3762 107.904Z" fill="black"/>
<path d="M86.7591 53.1945L86.7909 52.4611L88.2541 52.8242C88.2384 52.5888 88.1717 52.3596 88.0585 52.1524C87.9453 51.9452 87.7883 51.7649 87.5985 51.6241L89.157 51.5372C87.8492 49.6843 86.1783 48.1148 84.2451 46.9237C82.3119 45.7326 80.1567 44.9444 77.9095 44.6069C74.5383 44.1197 70.7845 44.8247 68.4727 47.3192C67.3514 48.5292 66.6468 50.0678 66.1456 51.6376C65.2225 54.5287 65.0345 57.9752 66.9593 60.3252C68.9156 62.7137 72.3326 63.1816 75.4112 63.4772C76.4945 63.5812 77.6297 63.6779 78.6335 63.2589C78.7452 62.111 78.5978 60.9526 78.2021 59.8689C78.0374 59.5334 77.9586 59.1624 77.9729 58.7891C78.1098 57.8759 79.3315 57.6459 80.2492 57.7692C81.167 57.8926 82.2705 58.0814 82.8735 57.3807C83.2889 56.898 83.2644 56.1951 83.3195 55.5615C83.4693 53.8365 86.7434 53.5561 86.7591 53.1945Z" fill="#2F2E41"/>
<path d="M145.796 204.778C151.99 204.778 157.011 199.772 157.011 193.597C157.011 187.421 151.99 182.415 145.796 182.415C139.602 182.415 134.581 187.421 134.581 193.597C134.581 199.772 139.602 204.778 145.796 204.778Z" fill="#FC5B00"/>
<path d="M14.084 200.878C20.2779 200.878 25.2991 195.872 25.2991 189.696C25.2991 183.521 20.2779 178.515 14.084 178.515C7.89011 178.515 2.86896 183.521 2.86896 189.696C2.86896 195.872 7.89011 200.878 14.084 200.878Z" fill="#FC5B00"/>
<path d="M14.084 182.935C18.5494 182.935 22.1693 179.326 22.1693 174.874C22.1693 170.422 18.5494 166.813 14.084 166.813C9.61862 166.813 5.99872 170.422 5.99872 174.874C5.99872 179.326 9.61862 182.935 14.084 182.935Z" fill="#FC5B00"/>
<path d="M14.084 168.113C17.253 168.113 19.8219 165.552 19.8219 162.392C19.8219 159.233 17.253 156.672 14.084 156.672C10.915 156.672 8.34607 159.233 8.34607 162.392C8.34607 165.552 10.915 168.113 14.084 168.113Z" fill="#FC5B00"/>
</g>
<path d="M14.582 260V243.09H16.1641L26.1016 257.293H26.1602V243.09H27.7422V260H26.1602L16.2227 245.797H16.1641V260H14.582ZM35.6172 260.223C32.2891 260.211 30.0625 257.773 30.0625 253.906V253.883C30.0625 250.016 32.3008 247.59 35.6172 247.59C38.9219 247.59 41.1719 250.004 41.1719 253.883V253.906C41.1719 257.785 38.9336 260.223 35.6172 260.223ZM35.6289 258.84C38.0078 258.84 39.5898 256.988 39.5898 253.906V253.883C39.5898 250.801 37.9961 248.973 35.6172 248.973C33.2383 248.973 31.6562 250.812 31.6562 253.883V253.906C31.6562 257 33.2266 258.828 35.6289 258.84ZM48.4023 260V243.09H50.2422L56.5117 257.984H56.582L62.8516 243.09H64.6914V260H63.1914V246.102H63.1094L57.2383 260H55.8438L49.9844 246.102H49.9023V260H48.4023ZM72.543 260.223C69.1211 260.223 67 257.797 67 253.941V253.93C67 250.109 69.1562 247.59 72.4141 247.59C75.6719 247.59 77.7227 250.027 77.7227 253.672V254.281H68.5703C68.6172 257.188 70.1758 258.84 72.5781 258.84C74.3711 258.84 75.6133 257.938 76.0117 256.613L76.0352 256.508H77.5703L77.5469 256.625C77.125 258.711 75.1797 260.223 72.543 260.223ZM72.4023 248.973C70.3281 248.973 68.7812 250.461 68.5938 253.051H76.1641C75.9883 250.391 74.4883 248.973 72.4023 248.973ZM79.7969 260V247.812H81.3438V249.887H81.3906C82 248.574 83.3711 247.602 85.3398 247.602C88.0352 247.602 89.6289 249.336 89.6289 252.195V260H88.082V252.453C88.082 250.191 86.957 248.984 84.8828 248.984C82.7617 248.984 81.3438 250.508 81.3438 252.781V260H79.7969ZM96.4727 260.211C93.7773 260.211 92.1719 258.477 92.1719 255.617V247.812H93.7305V255.359C93.7305 257.621 94.8555 258.828 96.918 258.828C99.0508 258.828 100.457 257.305 100.457 255.031V247.812H102.016V260H100.457V257.926H100.422C99.8008 259.238 98.4414 260.211 96.4727 260.211ZM108.543 260L114.918 243.09H116.5L122.863 260H121.176L119.289 254.82H112.129L110.242 260H108.543ZM115.691 245.047L112.633 253.438H118.785L115.727 245.047H115.691ZM126.848 260L122.312 247.812H123.953L127.656 258.371H127.691L131.406 247.812H133.023L128.5 260H126.848ZM137.875 260.223C135.473 260.223 133.832 258.781 133.832 256.625V256.602C133.832 254.527 135.402 253.273 138.203 253.086L142 252.852V251.797C142 250.039 140.887 248.973 138.988 248.973C137.219 248.973 136.059 249.828 135.801 251.211L135.777 251.328H134.277L134.289 251.188C134.523 249.09 136.258 247.59 139.012 247.59C141.801 247.59 143.547 249.16 143.547 251.656V260H142V257.773H141.953C141.285 259.227 139.68 260.223 137.875 260.223ZM135.414 256.625C135.414 257.961 136.539 258.863 138.191 258.863C140.324 258.863 142 257.363 142 255.418V254.07L138.391 254.316C136.48 254.434 135.414 255.266 135.414 256.602V256.625ZM147.051 245.609C146.477 245.609 146.02 245.152 146.02 244.578C146.02 244.004 146.477 243.559 147.051 243.559C147.613 243.559 148.07 244.004 148.07 244.578C148.07 245.152 147.613 245.609 147.051 245.609ZM146.266 260V247.812H147.824V260H146.266ZM150.73 260V243.09H152.277V260H150.73ZM158.664 260.223C156.262 260.223 154.621 258.781 154.621 256.625V256.602C154.621 254.527 156.191 253.273 158.992 253.086L162.789 252.852V251.797C162.789 250.039 161.676 248.973 159.777 248.973C158.008 248.973 156.848 249.828 156.59 251.211L156.566 251.328H155.066L155.078 251.188C155.312 249.09 157.047 247.59 159.801 247.59C162.59 247.59 164.336 249.16 164.336 251.656V260H162.789V257.773H162.742C162.074 259.227 160.469 260.223 158.664 260.223ZM156.203 256.625C156.203 257.961 157.328 258.863 158.98 258.863C161.113 258.863 162.789 257.363 162.789 255.418V254.07L159.18 254.316C157.27 254.434 156.203 255.266 156.203 256.602V256.625ZM172.797 260.223C170.875 260.223 169.34 259.145 168.637 257.422H168.602V260H167.043V243.09H168.602V250.355H168.637C169.328 248.668 170.898 247.59 172.809 247.59C175.855 247.59 177.953 250.086 177.953 253.895V253.906C177.953 257.715 175.867 260.223 172.797 260.223ZM172.504 258.84C174.848 258.84 176.359 256.918 176.359 253.906V253.895C176.359 250.906 174.848 248.973 172.504 248.973C170.23 248.973 168.59 250.965 168.59 253.895V253.906C168.59 256.848 170.207 258.84 172.504 258.84ZM180.121 260V243.09H181.668V260H180.121ZM189.379 260.223C185.957 260.223 183.836 257.797 183.836 253.941V253.93C183.836 250.109 185.992 247.59 189.25 247.59C192.508 247.59 194.559 250.027 194.559 253.672V254.281H185.406C185.453 257.188 187.012 258.84 189.414 258.84C191.207 258.84 192.449 257.938 192.848 256.613L192.871 256.508H194.406L194.383 256.625C193.961 258.711 192.016 260.223 189.379 260.223ZM189.238 248.973C187.164 248.973 185.617 250.461 185.43 253.051H193C192.824 250.391 191.324 248.973 189.238 248.973Z" fill="#52616B"/>
<defs>
<clipPath id="clip0_112_2513">
<rect width="208" height="217" fill="white"/>
</clipPath>
</defs>
</svg>
